<svg width="625" height="680" viewBox="0 0 625 680" fill="none" xmlns="http://www.w3.org/2000/svg">
<path d="M934.436 349.198L761.939 384.659C651.843 407.292 569.299 498.954 558.283 610.811V610.811C546.236 733.129 449.13 829.719 326.749 841.113L216.578 851.37" stroke="#463201" stroke-width="2" stroke-linecap="round"/>
<path d="M904.616 328.201L732.119 363.663C622.023 386.295 539.479 477.957 528.463 589.814V589.814C516.417 712.133 419.31 808.722 296.929 820.116L186.758 830.374" stroke="#463201" stroke-width="2" stroke-linecap="round"/>
<path d="M874.795 307.205L702.298 342.666C592.203 365.299 509.659 456.961 498.642 568.818V568.818C486.596 691.136 389.489 787.726 267.108 799.12L156.937 809.377" stroke="#463201" stroke-width="2" stroke-linecap="round"/>
<path d="M844.975 286.208L672.478 321.67C562.382 344.303 479.838 435.964 468.822 547.821V547.821C456.775 670.14 359.669 766.729 237.288 778.123L127.117 788.381" stroke="#463201" stroke-width="2" stroke-linecap="round"/>
<path d="M815.154 265.212L642.657 300.673C532.562 323.306 450.017 414.968 439.001 526.825V526.825C426.955 649.143 329.848 745.733 207.467 757.127L97.296 767.384" stroke="#463201" stroke-width="2" stroke-linecap="round"/>
<path d="M785.334 244.215L612.837 279.677C502.741 302.309 420.197 393.971 409.181 505.828V505.828C397.134 628.147 300.028 724.736 177.647 736.13L67.4757 746.388" stroke="#463201" stroke-width="2" stroke-linecap="round"/>
<path d="M755.513 223.219L583.016 258.68C472.92 281.313 390.376 372.975 379.36 484.832V484.832C367.313 607.15 270.207 703.74 147.826 715.134L37.6549 725.391" stroke="#463201" stroke-width="2" stroke-linecap="round"/>
</svg>
