<svg width="691" height="657" viewBox="0 0 691 657" fill="none" xmlns="http://www.w3.org/2000/svg">
<path d="M934.437 349.198L761.94 384.659C651.844 407.292 569.3 498.954 558.283 610.811V610.811C546.237 733.129 449.131 829.719 326.75 841.113L216.578 851.37" stroke="#463201" stroke-width="2" stroke-linecap="round"/>
<path d="M904.617 328.201L732.12 363.663C622.024 386.296 539.48 477.957 528.464 589.814V589.814C516.417 712.133 419.311 808.722 296.93 820.116L186.758 830.374" stroke="#463201" stroke-width="2" stroke-linecap="round"/>
<path d="M874.796 307.205L702.299 342.666C592.203 365.299 509.659 456.961 498.643 568.818V568.818C486.596 691.136 389.49 787.726 267.109 799.12L156.938 809.377" stroke="#463201" stroke-width="2" stroke-linecap="round"/>
<path d="M844.976 286.208L672.479 321.67C562.383 344.303 479.839 435.964 468.822 547.821V547.821C456.776 670.14 359.67 766.729 237.289 778.123L127.117 788.381" stroke="#463201" stroke-width="2" stroke-linecap="round"/>
<path d="M815.155 265.212L642.658 300.673C532.562 323.306 450.018 414.968 439.002 526.825V526.825C426.955 649.143 329.849 745.733 207.468 757.127L97.2965 767.384" stroke="#463201" stroke-width="2" stroke-linecap="round"/>
<path d="M785.334 244.215L612.838 279.677C502.742 302.31 420.198 393.971 409.181 505.828V505.828C397.135 628.147 300.028 724.736 177.647 736.13L67.4761 746.388" stroke="#463201" stroke-width="2" stroke-linecap="round"/>
<path d="M755.514 223.219L583.017 258.68C472.921 281.313 390.377 372.975 379.361 484.832V484.832C367.314 607.15 270.208 703.74 147.827 715.134L37.6553 725.391" stroke="#463201" stroke-width="2" stroke-linecap="round"/>
</svg>
