<svg width="710" height="647" viewBox="0 0 710 647" fill="none" xmlns="http://www.w3.org/2000/svg">
<path d="M-224.188 1L-139.276 206.758C-85.0811 338.082 48.2856 418.838 189.772 406.003V406.003C344.491 391.967 487.427 489.635 530.58 638.876L569.427 773.227" stroke="#463201" stroke-width="2" stroke-linecap="round"/>
<path d="M-243.188 43L-158.276 248.758C-104.081 380.082 29.2856 460.838 170.772 448.003V448.003C325.491 433.967 468.427 531.635 511.58 680.876L550.427 815.227" stroke="#463201" stroke-width="2" stroke-linecap="round"/>
<path d="M-262.188 85L-177.276 290.758C-123.081 422.082 10.2856 502.838 151.772 490.003V490.003C306.491 475.967 449.427 573.635 492.58 722.876L531.427 857.227" stroke="#463201" stroke-width="2" stroke-linecap="round"/>
<path d="M-281.188 127L-196.276 332.758C-142.081 464.082 -8.71445 544.838 132.772 532.003V532.003C287.491 517.967 430.427 615.635 473.58 764.876L512.427 899.227" stroke="#463201" stroke-width="2" stroke-linecap="round"/>
<path d="M-300.188 169L-215.276 374.758C-161.081 506.082 -27.7144 586.838 113.772 574.003V574.003C268.491 559.967 411.427 657.635 454.58 806.876L493.427 941.227" stroke="#463201" stroke-width="2" stroke-linecap="round"/>
<path d="M-319.188 211L-234.276 416.758C-180.081 548.082 -46.7144 628.838 94.7718 616.003V616.003C249.491 601.967 392.427 699.635 435.58 848.876L474.427 983.227" stroke="#463201" stroke-width="2" stroke-linecap="round"/>
<path d="M-338.188 253L-253.276 458.758C-199.081 590.082 -65.7144 670.838 75.7718 658.003V658.003C230.491 643.967 373.427 741.635 416.58 890.876L455.427 1025.23" stroke="#463201" stroke-width="2" stroke-linecap="round"/>
</svg>
